<svg width="278" height="107" viewBox="0 0 278 107" fill="none" xmlns="http://www.w3.org/2000/svg">
<path d="M28.9393 49.9393C28.3536 50.5251 28.3536 51.4749 28.9393 52.0607L38.4853 61.6066C39.0711 62.1924 40.0208 62.1924 40.6066 61.6066C41.1924 61.0208 41.1924 60.0711 40.6066 59.4853L32.1213 51L40.6066 42.5147C41.1924 41.9289 41.1924 40.9792 40.6066 40.3934C40.0208 39.8076 39.0711 39.8076 38.4853 40.3934L28.9393 49.9393ZM120.061 52.0607C120.646 51.4749 120.646 50.5251 120.061 49.9393L110.515 40.3934C109.929 39.8076 108.979 39.8076 108.393 40.3934C107.808 40.9792 107.808 41.9289 108.393 42.5147L116.879 51L108.393 59.4853C107.808 60.0711 107.808 61.0208 108.393 61.6066C108.979 62.1924 109.929 62.1924 110.515 61.6066L120.061 52.0607ZM30 52.5L119 52.5V49.5L30 49.5V52.5Z" fill="#3A312A"/>
<path d="M35 67C43.8366 67 51 59.8366 51 51C51 42.1634 43.8366 35 35 35C26.1634 35 19 42.1634 19 51C19 59.8366 26.1634 67 35 67Z" fill="#F16C7A"/>
<path d="M35 32C24.524 32 16 40.524 16 51C16 61.476 24.524 70 35 70C45.476 70 54 61.476 54 51C54 40.524 45.476 32 35 32ZM35 64C27.832 64 22 58.168 22 51C22 43.832 27.832 38 35 38C42.168 38 48 43.832 48 51C48 58.168 42.168 64 35 64Z" fill="#3A312A"/>
<path d="M131.939 49.9393C131.354 50.5251 131.354 51.4749 131.939 52.0607L141.485 61.6066C142.071 62.1924 143.021 62.1924 143.607 61.6066C144.192 61.0208 144.192 60.0711 143.607 59.4853L135.121 51L143.607 42.5147C144.192 41.9289 144.192 40.9792 143.607 40.3934C143.021 39.8076 142.071 39.8076 141.485 40.3934L131.939 49.9393ZM223.061 52.0607C223.646 51.4749 223.646 50.5251 223.061 49.9393L213.515 40.3934C212.929 39.8076 211.979 39.8076 211.393 40.3934C210.808 40.9792 210.808 41.9289 211.393 42.5147L219.879 51L211.393 59.4853C210.808 60.0711 210.808 61.0208 211.393 61.6066C211.979 62.1924 212.929 62.1924 213.515 61.6066L223.061 52.0607ZM133 52.5L222 52.5V49.5L133 49.5V52.5Z" fill="#858585"/>
<path d="M138.002 67C146.839 67 154.002 59.8366 154.002 51C154.002 42.1634 146.839 35 138.002 35C129.165 35 122.002 42.1634 122.002 51C122.002 59.8366 129.165 67 138.002 67Z" fill="#D7E057"/>
<path d="M138 32C127.524 32 119 40.524 119 51C119 61.476 127.522 70 138 70C148.476 70 157 61.476 157 51C157 40.524 148.478 32 138 32ZM138 64C130.832 64 125 58.168 125 51C125 43.832 130.832 38 138 38C145.168 38 151 43.832 151 51C151 58.168 145.168 64 138 64Z" fill="#3A312A"/>
<path d="M242.002 67C250.839 67 258.002 59.8366 258.002 51C258.002 42.1634 250.839 35 242.002 35C233.165 35 226.002 42.1634 226.002 51C226.002 59.8366 233.165 67 242.002 67Z" fill="#8AC6DD"/>
<path d="M242 32C231.524 32 223 40.524 223 51C223 61.476 231.524 70 242 70C252.476 70 261 61.476 261 51C261 40.524 252.478 32 242 32ZM242 64C234.832 64 229 58.168 229 51C229 43.832 234.832 38 242 38C249.168 38 255 43.832 255 51C255 58.168 249.168 64 242 64Z" fill="#858585"/>
<path d="M213.74 89H212.609L208.314 82.4258V89H207.184V80.4688H208.314L212.621 87.0723V80.4688H213.74V89ZM219.482 89C219.42 88.875 219.369 88.6523 219.33 88.332C218.826 88.8555 218.225 89.1172 217.525 89.1172C216.9 89.1172 216.387 88.9414 215.984 88.5898C215.586 88.2344 215.387 87.7852 215.387 87.2422C215.387 86.582 215.637 86.0703 216.137 85.707C216.641 85.3398 217.348 85.1562 218.258 85.1562H219.312V84.6582C219.312 84.2793 219.199 83.9785 218.973 83.7559C218.746 83.5293 218.412 83.416 217.971 83.416C217.584 83.416 217.26 83.5137 216.998 83.709C216.736 83.9043 216.605 84.1406 216.605 84.418H215.516C215.516 84.1016 215.627 83.7969 215.85 83.5039C216.076 83.207 216.381 82.9727 216.764 82.8008C217.15 82.6289 217.574 82.543 218.035 82.543C218.766 82.543 219.338 82.7266 219.752 83.0938C220.166 83.457 220.381 83.959 220.396 84.5996V87.5176C220.396 88.0996 220.471 88.5625 220.619 88.9062V89H219.482ZM217.684 88.1738C218.023 88.1738 218.346 88.0859 218.65 87.9102C218.955 87.7344 219.176 87.5059 219.312 87.2246V85.9238H218.463C217.135 85.9238 216.471 86.3125 216.471 87.0898C216.471 87.4297 216.584 87.6953 216.811 87.8867C217.037 88.0781 217.328 88.1738 217.684 88.1738ZM223.115 82.6602L223.145 83.3633C223.609 82.8164 224.236 82.543 225.025 82.543C225.912 82.543 226.516 82.8828 226.836 83.5625C227.047 83.2578 227.32 83.0117 227.656 82.8242C227.996 82.6367 228.396 82.543 228.857 82.543C230.248 82.543 230.955 83.2793 230.979 84.752V89H229.895V84.8164C229.895 84.3633 229.791 84.0254 229.584 83.8027C229.377 83.5762 229.029 83.4629 228.541 83.4629C228.139 83.4629 227.805 83.584 227.539 83.8262C227.273 84.0645 227.119 84.3867 227.076 84.793V89H225.986V84.8457C225.986 83.9238 225.535 83.4629 224.633 83.4629C223.922 83.4629 223.436 83.7656 223.174 84.3711V89H222.09V82.6602H223.115ZM235.25 89.1172C234.391 89.1172 233.691 88.8359 233.152 88.2734C232.613 87.707 232.344 86.9512 232.344 86.0059V85.8066C232.344 85.1777 232.463 84.6172 232.701 84.125C232.943 83.6289 233.279 83.2422 233.709 82.9648C234.143 82.6836 234.611 82.543 235.115 82.543C235.939 82.543 236.58 82.8145 237.037 83.3574C237.494 83.9004 237.723 84.6777 237.723 85.6895V86.1406H233.428C233.443 86.7656 233.625 87.2715 233.973 87.6582C234.324 88.041 234.77 88.2324 235.309 88.2324C235.691 88.2324 236.016 88.1543 236.281 87.998C236.547 87.8418 236.779 87.6348 236.979 87.377L237.641 87.8926C237.109 88.709 236.312 89.1172 235.25 89.1172ZM235.115 83.4336C234.678 83.4336 234.311 83.5938 234.014 83.9141C233.717 84.2305 233.533 84.6758 233.463 85.25H236.639V85.168C236.607 84.6172 236.459 84.1914 236.193 83.8906C235.928 83.5859 235.568 83.4336 235.115 83.4336ZM238.719 85.7773C238.719 84.8047 238.949 84.0234 239.41 83.4336C239.871 82.8398 240.475 82.543 241.221 82.543C241.963 82.543 242.551 82.7969 242.984 83.3047V80H244.068V89H243.072L243.02 88.3203C242.586 88.8516 241.982 89.1172 241.209 89.1172C240.475 89.1172 239.875 88.8164 239.41 88.2148C238.949 87.6133 238.719 86.8281 238.719 85.8594V85.7773ZM239.803 85.9004C239.803 86.6191 239.951 87.1816 240.248 87.5879C240.545 87.9941 240.955 88.1973 241.479 88.1973C242.166 88.1973 242.668 87.8887 242.984 87.2715V84.3594C242.66 83.7617 242.162 83.4629 241.49 83.4629C240.959 83.4629 240.545 83.668 240.248 84.0781C239.951 84.4883 239.803 85.0957 239.803 85.9004ZM253.725 85.0566H250.027V88.0801H254.322V89H248.902V80.4688H254.264V81.3945H250.027V84.1367H253.725V85.0566ZM256.578 82.6602L256.613 83.457C257.098 82.8477 257.73 82.543 258.512 82.543C259.852 82.543 260.527 83.2988 260.539 84.8105V89H259.455V84.8047C259.451 84.3477 259.346 84.0098 259.139 83.791C258.936 83.5723 258.617 83.4629 258.184 83.4629C257.832 83.4629 257.523 83.5566 257.258 83.7441C256.992 83.9316 256.785 84.1777 256.637 84.4824V89H255.553V82.6602H256.578ZM263.645 81.125V82.6602H264.828V83.498H263.645V87.4297C263.645 87.6836 263.697 87.875 263.803 88.0039C263.908 88.1289 264.088 88.1914 264.342 88.1914C264.467 88.1914 264.639 88.168 264.857 88.1211V89C264.572 89.0781 264.295 89.1172 264.025 89.1172C263.541 89.1172 263.176 88.9707 262.93 88.6777C262.684 88.3848 262.561 87.9688 262.561 87.4297V83.498H261.406V82.6602H262.561V81.125H263.645ZM267.277 89H266.193V82.6602H267.277V89ZM266.105 80.9785C266.105 80.8027 266.158 80.6543 266.264 80.5332C266.373 80.4121 266.533 80.3516 266.744 80.3516C266.955 80.3516 267.115 80.4121 267.225 80.5332C267.334 80.6543 267.389 80.8027 267.389 80.9785C267.389 81.1543 267.334 81.3008 267.225 81.418C267.115 81.5352 266.955 81.5938 266.744 81.5938C266.533 81.5938 266.373 81.5352 266.264 81.418C266.158 81.3008 266.105 81.1543 266.105 80.9785ZM270.488 81.125V82.6602H271.672V83.498H270.488V87.4297C270.488 87.6836 270.541 87.875 270.646 88.0039C270.752 88.1289 270.932 88.1914 271.186 88.1914C271.311 88.1914 271.482 88.168 271.701 88.1211V89C271.416 89.0781 271.139 89.1172 270.869 89.1172C270.385 89.1172 270.02 88.9707 269.773 88.6777C269.527 88.3848 269.404 87.9688 269.404 87.4297V83.498H268.25V82.6602H269.404V81.125H270.488ZM275.018 87.4121L276.494 82.6602H277.654L275.105 89.9785C274.711 91.0332 274.084 91.5605 273.225 91.5605L273.02 91.543L272.615 91.4668V90.5879L272.908 90.6113C273.275 90.6113 273.561 90.5371 273.764 90.3887C273.971 90.2402 274.141 89.9688 274.273 89.5742L274.514 88.9297L272.252 82.6602H273.436L275.018 87.4121ZM224.943 102.08H228.986V103H223.812V94.4688H224.943V102.08ZM231.277 103H230.193V96.6602H231.277V103ZM230.105 94.9785C230.105 94.8027 230.158 94.6543 230.264 94.5332C230.373 94.4121 230.533 94.3516 230.744 94.3516C230.955 94.3516 231.115 94.4121 231.225 94.5332C231.334 94.6543 231.389 94.8027 231.389 94.9785C231.389 95.1543 231.334 95.3008 231.225 95.418C231.115 95.5352 230.955 95.5938 230.744 95.5938C230.533 95.5938 230.373 95.5352 230.264 95.418C230.158 95.3008 230.105 95.1543 230.105 94.9785ZM234.043 96.6602L234.078 97.457C234.562 96.8477 235.195 96.543 235.977 96.543C237.316 96.543 237.992 97.2988 238.004 98.8105V103H236.92V98.8047C236.916 98.3477 236.811 98.0098 236.604 97.791C236.4 97.5723 236.082 97.4629 235.648 97.4629C235.297 97.4629 234.988 97.5566 234.723 97.7441C234.457 97.9316 234.25 98.1777 234.102 98.4824V103H233.018V96.6602H234.043ZM241.408 100.064L240.729 100.773V103H239.645V94H240.729V99.4434L241.309 98.7461L243.283 96.6602H244.602L242.135 99.3086L244.889 103H243.617L241.408 100.064ZM246.898 103H245.814V96.6602H246.898V103ZM245.727 94.9785C245.727 94.8027 245.779 94.6543 245.885 94.5332C245.994 94.4121 246.154 94.3516 246.365 94.3516C246.576 94.3516 246.736 94.4121 246.846 94.5332C246.955 94.6543 247.01 94.8027 247.01 94.9785C247.01 95.1543 246.955 95.3008 246.846 95.418C246.736 95.5352 246.576 95.5938 246.365 95.5938C246.154 95.5938 245.994 95.5352 245.885 95.418C245.779 95.3008 245.727 95.1543 245.727 94.9785ZM249.664 96.6602L249.699 97.457C250.184 96.8477 250.816 96.543 251.598 96.543C252.938 96.543 253.613 97.2988 253.625 98.8105V103H252.541V98.8047C252.537 98.3477 252.432 98.0098 252.225 97.791C252.021 97.5723 251.703 97.4629 251.27 97.4629C250.918 97.4629 250.609 97.5566 250.344 97.7441C250.078 97.9316 249.871 98.1777 249.723 98.4824V103H248.639V96.6602H249.664ZM255.002 99.7773C255.002 98.7891 255.23 98.0039 255.688 97.4219C256.145 96.8359 256.75 96.543 257.504 96.543C258.277 96.543 258.881 96.8164 259.314 97.3633L259.367 96.6602H260.357V102.848C260.357 103.668 260.113 104.314 259.625 104.787C259.141 105.26 258.488 105.496 257.668 105.496C257.211 105.496 256.764 105.398 256.326 105.203C255.889 105.008 255.555 104.74 255.324 104.4L255.887 103.75C256.352 104.324 256.92 104.611 257.592 104.611C258.119 104.611 258.529 104.463 258.822 104.166C259.119 103.869 259.268 103.451 259.268 102.912V102.367C258.834 102.867 258.242 103.117 257.492 103.117C256.75 103.117 256.148 102.818 255.688 102.221C255.23 101.623 255.002 100.809 255.002 99.7773ZM256.092 99.9004C256.092 100.615 256.238 101.178 256.531 101.588C256.824 101.994 257.234 102.197 257.762 102.197C258.445 102.197 258.947 101.887 259.268 101.266V98.3711C258.936 97.7656 258.438 97.4629 257.773 97.4629C257.246 97.4629 256.834 97.668 256.537 98.0781C256.24 98.4883 256.092 99.0957 256.092 99.9004Z" fill="black"/>
<path d="M6.74023 90H5.60938L1.31445 83.4258V90H0.183594V81.4688H1.31445L5.62109 88.0723V81.4688H6.74023V90ZM12.4824 90C12.4199 89.875 12.3691 89.6523 12.3301 89.332C11.8262 89.8555 11.2246 90.1172 10.5254 90.1172C9.90039 90.1172 9.38672 89.9414 8.98438 89.5898C8.58594 89.2344 8.38672 88.7852 8.38672 88.2422C8.38672 87.582 8.63672 87.0703 9.13672 86.707C9.64062 86.3398 10.3477 86.1562 11.2578 86.1562H12.3125V85.6582C12.3125 85.2793 12.1992 84.9785 11.9727 84.7559C11.7461 84.5293 11.4121 84.416 10.9707 84.416C10.584 84.416 10.2598 84.5137 9.99805 84.709C9.73633 84.9043 9.60547 85.1406 9.60547 85.418H8.51562C8.51562 85.1016 8.62695 84.7969 8.84961 84.5039C9.07617 84.207 9.38086 83.9727 9.76367 83.8008C10.1504 83.6289 10.5742 83.543 11.0352 83.543C11.7656 83.543 12.3379 83.7266 12.752 84.0938C13.166 84.457 13.3809 84.959 13.3965 85.5996V88.5176C13.3965 89.0996 13.4707 89.5625 13.6191 89.9062V90H12.4824ZM10.6836 89.1738C11.0234 89.1738 11.3457 89.0859 11.6504 88.9102C11.9551 88.7344 12.1758 88.5059 12.3125 88.2246V86.9238H11.4629C10.1348 86.9238 9.4707 87.3125 9.4707 88.0898C9.4707 88.4297 9.58398 88.6953 9.81055 88.8867C10.0371 89.0781 10.3281 89.1738 10.6836 89.1738ZM16.1152 83.6602L16.1445 84.3633C16.6094 83.8164 17.2363 83.543 18.0254 83.543C18.9121 83.543 19.5156 83.8828 19.8359 84.5625C20.0469 84.2578 20.3203 84.0117 20.6562 83.8242C20.9961 83.6367 21.3965 83.543 21.8574 83.543C23.248 83.543 23.9551 84.2793 23.9785 85.752V90H22.8945V85.8164C22.8945 85.3633 22.791 85.0254 22.584 84.8027C22.377 84.5762 22.0293 84.4629 21.541 84.4629C21.1387 84.4629 20.8047 84.584 20.5391 84.8262C20.2734 85.0645 20.1191 85.3867 20.0762 85.793V90H18.9863V85.8457C18.9863 84.9238 18.5352 84.4629 17.6328 84.4629C16.9219 84.4629 16.4355 84.7656 16.1738 85.3711V90H15.0898V83.6602H16.1152ZM28.25 90.1172C27.3906 90.1172 26.6914 89.8359 26.1523 89.2734C25.6133 88.707 25.3438 87.9512 25.3438 87.0059V86.8066C25.3438 86.1777 25.4629 85.6172 25.7012 85.125C25.9434 84.6289 26.2793 84.2422 26.709 83.9648C27.1426 83.6836 27.6113 83.543 28.1152 83.543C28.9395 83.543 29.5801 83.8145 30.0371 84.3574C30.4941 84.9004 30.7227 85.6777 30.7227 86.6895V87.1406H26.4277C26.4434 87.7656 26.625 88.2715 26.9727 88.6582C27.3242 89.041 27.7695 89.2324 28.3086 89.2324C28.6914 89.2324 29.0156 89.1543 29.2812 88.998C29.5469 88.8418 29.7793 88.6348 29.9785 88.377L30.6406 88.8926C30.1094 89.709 29.3125 90.1172 28.25 90.1172ZM28.1152 84.4336C27.6777 84.4336 27.3105 84.5938 27.0137 84.9141C26.7168 85.2305 26.5332 85.6758 26.4629 86.25H29.6387V86.168C29.6074 85.6172 29.459 85.1914 29.1934 84.8906C28.9277 84.5859 28.5684 84.4336 28.1152 84.4336ZM31.7188 86.7773C31.7188 85.8047 31.9492 85.0234 32.4102 84.4336C32.8711 83.8398 33.4746 83.543 34.2207 83.543C34.9629 83.543 35.5508 83.7969 35.9844 84.3047V81H37.0684V90H36.0723L36.0195 89.3203C35.5859 89.8516 34.9824 90.1172 34.209 90.1172C33.4746 90.1172 32.875 89.8164 32.4102 89.2148C31.9492 88.6133 31.7188 87.8281 31.7188 86.8594V86.7773ZM32.8027 86.9004C32.8027 87.6191 32.9512 88.1816 33.248 88.5879C33.5449 88.9941 33.9551 89.1973 34.4785 89.1973C35.166 89.1973 35.668 88.8887 35.9844 88.2715V85.3594C35.6602 84.7617 35.1621 84.4629 34.4902 84.4629C33.959 84.4629 33.5449 84.668 33.248 85.0781C32.9512 85.4883 32.8027 86.0957 32.8027 86.9004ZM46.7246 86.0566H43.0273V89.0801H47.3223V90H41.9023V81.4688H47.2637V82.3945H43.0273V85.1367H46.7246V86.0566ZM49.5781 83.6602L49.6133 84.457C50.0977 83.8477 50.7305 83.543 51.5117 83.543C52.8516 83.543 53.5273 84.2988 53.5391 85.8105V90H52.4551V85.8047C52.4512 85.3477 52.3457 85.0098 52.1387 84.791C51.9355 84.5723 51.6172 84.4629 51.1836 84.4629C50.832 84.4629 50.5234 84.5566 50.2578 84.7441C49.9922 84.9316 49.7852 85.1777 49.6367 85.4824V90H48.5527V83.6602H49.5781ZM56.6445 82.125V83.6602H57.8281V84.498H56.6445V88.4297C56.6445 88.6836 56.6973 88.875 56.8027 89.0039C56.9082 89.1289 57.0879 89.1914 57.3418 89.1914C57.4668 89.1914 57.6387 89.168 57.8574 89.1211V90C57.5723 90.0781 57.2949 90.1172 57.0254 90.1172C56.541 90.1172 56.1758 89.9707 55.9297 89.6777C55.6836 89.3848 55.5605 88.9688 55.5605 88.4297V84.498H54.4062V83.6602H55.5605V82.125H56.6445ZM60.2773 90H59.1934V83.6602H60.2773V90ZM59.1055 81.9785C59.1055 81.8027 59.1582 81.6543 59.2637 81.5332C59.373 81.4121 59.5332 81.3516 59.7441 81.3516C59.9551 81.3516 60.1152 81.4121 60.2246 81.5332C60.334 81.6543 60.3887 81.8027 60.3887 81.9785C60.3887 82.1543 60.334 82.3008 60.2246 82.418C60.1152 82.5352 59.9551 82.5938 59.7441 82.5938C59.5332 82.5938 59.373 82.5352 59.2637 82.418C59.1582 82.3008 59.1055 82.1543 59.1055 81.9785ZM63.4883 82.125V83.6602H64.6719V84.498H63.4883V88.4297C63.4883 88.6836 63.541 88.875 63.6465 89.0039C63.752 89.1289 63.9316 89.1914 64.1855 89.1914C64.3105 89.1914 64.4824 89.168 64.7012 89.1211V90C64.416 90.0781 64.1387 90.1172 63.8691 90.1172C63.3848 90.1172 63.0195 89.9707 62.7734 89.6777C62.5273 89.3848 62.4043 88.9688 62.4043 88.4297V84.498H61.25V83.6602H62.4043V82.125H63.4883ZM68.0176 88.4121L69.4941 83.6602H70.6543L68.1055 90.9785C67.7109 92.0332 67.084 92.5605 66.2246 92.5605L66.0195 92.543L65.6152 92.4668V91.5879L65.9082 91.6113C66.2754 91.6113 66.5605 91.5371 66.7637 91.3887C66.9707 91.2402 67.1406 90.9688 67.2734 90.5742L67.5137 89.9297L65.252 83.6602H66.4355L68.0176 88.4121ZM7.38477 100.549H5.38086V104H4.25V95.4688H7.07422C8.03516 95.4688 8.77344 95.6875 9.28906 96.125C9.80859 96.5625 10.0684 97.1992 10.0684 98.0352C10.0684 98.5664 9.92383 99.0293 9.63477 99.4238C9.34961 99.8184 8.95117 100.113 8.43945 100.309L10.4434 103.93V104H9.23633L7.38477 100.549ZM5.38086 99.6289H7.10938C7.66797 99.6289 8.11133 99.4844 8.43945 99.1953C8.77148 98.9062 8.9375 98.5195 8.9375 98.0352C8.9375 97.5078 8.7793 97.1035 8.46289 96.8223C8.15039 96.541 7.69727 96.3984 7.10352 96.3945H5.38086V99.6289ZM14.1113 104.117C13.252 104.117 12.5527 103.836 12.0137 103.273C11.4746 102.707 11.2051 101.951 11.2051 101.006V100.807C11.2051 100.178 11.3242 99.6172 11.5625 99.125C11.8047 98.6289 12.1406 98.2422 12.5703 97.9648C13.0039 97.6836 13.4727 97.543 13.9766 97.543C14.8008 97.543 15.4414 97.8145 15.8984 98.3574C16.3555 98.9004 16.584 99.6777 16.584 100.689V101.141H12.2891C12.3047 101.766 12.4863 102.271 12.834 102.658C13.1855 103.041 13.6309 103.232 14.1699 103.232C14.5527 103.232 14.877 103.154 15.1426 102.998C15.4082 102.842 15.6406 102.635 15.8398 102.377L16.502 102.893C15.9707 103.709 15.1738 104.117 14.1113 104.117ZM13.9766 98.4336C13.5391 98.4336 13.1719 98.5938 12.875 98.9141C12.5781 99.2305 12.3945 99.6758 12.3242 100.25H15.5V100.168C15.4688 99.6172 15.3203 99.1914 15.0547 98.8906C14.7891 98.5859 14.4297 98.4336 13.9766 98.4336ZM20.3867 103.232C20.7734 103.232 21.1113 103.115 21.4004 102.881C21.6895 102.646 21.8496 102.354 21.8809 102.002H22.9062C22.8867 102.365 22.7617 102.711 22.5312 103.039C22.3008 103.367 21.9922 103.629 21.6055 103.824C21.2227 104.02 20.8164 104.117 20.3867 104.117C19.5234 104.117 18.8359 103.83 18.3242 103.256C17.8164 102.678 17.5625 101.889 17.5625 100.889V100.707C17.5625 100.09 17.6758 99.541 17.9023 99.0605C18.1289 98.5801 18.4531 98.207 18.875 97.9414C19.3008 97.6758 19.8027 97.543 20.3809 97.543C21.0918 97.543 21.6816 97.7559 22.1504 98.1816C22.623 98.6074 22.875 99.1602 22.9062 99.8398H21.8809C21.8496 99.4297 21.6934 99.0938 21.4121 98.832C21.1348 98.5664 20.791 98.4336 20.3809 98.4336C19.8301 98.4336 19.4023 98.6328 19.0977 99.0312C18.7969 99.4258 18.6465 99.998 18.6465 100.748V100.953C18.6465 101.684 18.7969 102.246 19.0977 102.641C19.3984 103.035 19.8281 103.232 20.3867 103.232ZM23.8379 100.771C23.8379 100.15 23.959 99.5918 24.2012 99.0957C24.4473 98.5996 24.7871 98.2168 25.2207 97.9473C25.6582 97.6777 26.1562 97.543 26.7148 97.543C27.5781 97.543 28.2754 97.8418 28.8066 98.4395C29.3418 99.0371 29.6094 99.832 29.6094 100.824V100.9C29.6094 101.518 29.4902 102.072 29.252 102.564C29.0176 103.053 28.6797 103.434 28.2383 103.707C27.8008 103.98 27.2969 104.117 26.7266 104.117C25.8672 104.117 25.1699 103.818 24.6348 103.221C24.1035 102.623 23.8379 101.832 23.8379 100.848V100.771ZM24.9277 100.9C24.9277 101.604 25.0898 102.168 25.4141 102.594C25.7422 103.02 26.1797 103.232 26.7266 103.232C27.2773 103.232 27.7148 103.018 28.0391 102.588C28.3633 102.154 28.5254 101.549 28.5254 100.771C28.5254 100.076 28.3594 99.5137 28.0273 99.084C27.6992 98.6504 27.2617 98.4336 26.7148 98.4336C26.1797 98.4336 25.748 98.6465 25.4199 99.0723C25.0918 99.498 24.9277 100.107 24.9277 100.9ZM30.7109 100.777C30.7109 99.7891 30.9395 99.0039 31.3965 98.4219C31.8535 97.8359 32.459 97.543 33.2129 97.543C33.9863 97.543 34.5898 97.8164 35.0234 98.3633L35.0762 97.6602H36.0664V103.848C36.0664 104.668 35.8223 105.314 35.334 105.787C34.8496 106.26 34.1973 106.496 33.377 106.496C32.9199 106.496 32.4727 106.398 32.0352 106.203C31.5977 106.008 31.2637 105.74 31.0332 105.4L31.5957 104.75C32.0605 105.324 32.6289 105.611 33.3008 105.611C33.8281 105.611 34.2383 105.463 34.5312 105.166C34.8281 104.869 34.9766 104.451 34.9766 103.912V103.367C34.543 103.867 33.9512 104.117 33.2012 104.117C32.459 104.117 31.8574 103.818 31.3965 103.221C30.9395 102.623 30.7109 101.809 30.7109 100.777ZM31.8008 100.9C31.8008 101.615 31.9473 102.178 32.2402 102.588C32.5332 102.994 32.9434 103.197 33.4707 103.197C34.1543 103.197 34.6562 102.887 34.9766 102.266V99.3711C34.6445 98.7656 34.1465 98.4629 33.4824 98.4629C32.9551 98.4629 32.543 98.668 32.2461 99.0781C31.9492 99.4883 31.8008 100.096 31.8008 100.9ZM38.7324 97.6602L38.7676 98.457C39.252 97.8477 39.8848 97.543 40.666 97.543C42.0059 97.543 42.6816 98.2988 42.6934 99.8105V104H41.6094V99.8047C41.6055 99.3477 41.5 99.0098 41.293 98.791C41.0898 98.5723 40.7715 98.4629 40.3379 98.4629C39.9863 98.4629 39.6777 98.5566 39.4121 98.7441C39.1465 98.9316 38.9395 99.1777 38.791 99.4824V104H37.707V97.6602H38.7324ZM45.5059 104H44.4219V97.6602H45.5059V104ZM44.334 95.9785C44.334 95.8027 44.3867 95.6543 44.4922 95.5332C44.6016 95.4121 44.7617 95.3516 44.9727 95.3516C45.1836 95.3516 45.3438 95.4121 45.4531 95.5332C45.5625 95.6543 45.6172 95.8027 45.6172 95.9785C45.6172 96.1543 45.5625 96.3008 45.4531 96.418C45.3438 96.5352 45.1836 96.5938 44.9727 96.5938C44.7617 96.5938 44.6016 96.5352 44.4922 96.418C44.3867 96.3008 44.334 96.1543 44.334 95.9785ZM48.7168 96.125V97.6602H49.9004V98.498H48.7168V102.43C48.7168 102.684 48.7695 102.875 48.875 103.004C48.9805 103.129 49.1602 103.191 49.4141 103.191C49.5391 103.191 49.7109 103.168 49.9297 103.121V104C49.6445 104.078 49.3672 104.117 49.0977 104.117C48.6133 104.117 48.248 103.971 48.002 103.678C47.7559 103.385 47.6328 102.969 47.6328 102.43V98.498H46.4785V97.6602H47.6328V96.125H48.7168ZM52.3496 104H51.2656V97.6602H52.3496V104ZM51.1777 95.9785C51.1777 95.8027 51.2305 95.6543 51.3359 95.5332C51.4453 95.4121 51.6055 95.3516 51.8164 95.3516C52.0273 95.3516 52.1875 95.4121 52.2969 95.5332C52.4062 95.6543 52.4609 95.8027 52.4609 95.9785C52.4609 96.1543 52.4062 96.3008 52.2969 96.418C52.1875 96.5352 52.0273 96.5938 51.8164 96.5938C51.6055 96.5938 51.4453 96.5352 51.3359 96.418C51.2305 96.3008 51.1777 96.1543 51.1777 95.9785ZM53.8027 100.771C53.8027 100.15 53.9238 99.5918 54.166 99.0957C54.4121 98.5996 54.752 98.2168 55.1855 97.9473C55.623 97.6777 56.1211 97.543 56.6797 97.543C57.543 97.543 58.2402 97.8418 58.7715 98.4395C59.3066 99.0371 59.5742 99.832 59.5742 100.824V100.9C59.5742 101.518 59.4551 102.072 59.2168 102.564C58.9824 103.053 58.6445 103.434 58.2031 103.707C57.7656 103.98 57.2617 104.117 56.6914 104.117C55.832 104.117 55.1348 103.818 54.5996 103.221C54.0684 102.623 53.8027 101.832 53.8027 100.848V100.771ZM54.8926 100.9C54.8926 101.604 55.0547 102.168 55.3789 102.594C55.707 103.02 56.1445 103.232 56.6914 103.232C57.2422 103.232 57.6797 103.018 58.0039 102.588C58.3281 102.154 58.4902 101.549 58.4902 100.771C58.4902 100.076 58.3242 99.5137 57.9922 99.084C57.6641 98.6504 57.2266 98.4336 56.6797 98.4336C56.1445 98.4336 55.7129 98.6465 55.3848 99.0723C55.0566 99.498 54.8926 100.107 54.8926 100.9ZM61.959 97.6602L61.9941 98.457C62.4785 97.8477 63.1113 97.543 63.8926 97.543C65.2324 97.543 65.9082 98.2988 65.9199 99.8105V104H64.8359V99.8047C64.832 99.3477 64.7266 99.0098 64.5195 98.791C64.3164 98.5723 63.998 98.4629 63.5645 98.4629C63.2129 98.4629 62.9043 98.5566 62.6387 98.7441C62.373 98.9316 62.166 99.1777 62.0176 99.4824V104H60.9336V97.6602H61.959Z" fill="black"/>
<path d="M119.059 0.46875L121.848 7.42969L124.637 0.46875H126.096V9H124.971V5.67773L125.076 2.0918L122.275 9H121.414L118.619 2.10938L118.73 5.67773V9H117.605V0.46875H119.059ZM130.543 9.11719C129.684 9.11719 128.984 8.83594 128.445 8.27344C127.906 7.70703 127.637 6.95117 127.637 6.00586V5.80664C127.637 5.17773 127.756 4.61719 127.994 4.125C128.236 3.62891 128.572 3.24219 129.002 2.96484C129.436 2.68359 129.904 2.54297 130.408 2.54297C131.232 2.54297 131.873 2.81445 132.33 3.35742C132.787 3.90039 133.016 4.67773 133.016 5.68945V6.14062H128.721C128.736 6.76562 128.918 7.27148 129.266 7.6582C129.617 8.04102 130.062 8.23242 130.602 8.23242C130.984 8.23242 131.309 8.1543 131.574 7.99805C131.84 7.8418 132.072 7.63477 132.271 7.37695L132.934 7.89258C132.402 8.70898 131.605 9.11719 130.543 9.11719ZM130.408 3.43359C129.971 3.43359 129.604 3.59375 129.307 3.91406C129.01 4.23047 128.826 4.67578 128.756 5.25H131.932V5.16797C131.9 4.61719 131.752 4.19141 131.486 3.89062C131.221 3.58594 130.861 3.43359 130.408 3.43359ZM135.301 2.66016L135.336 3.45703C135.82 2.84766 136.453 2.54297 137.234 2.54297C138.574 2.54297 139.25 3.29883 139.262 4.81055V9H138.178V4.80469C138.174 4.34766 138.068 4.00977 137.861 3.79102C137.658 3.57227 137.34 3.46289 136.906 3.46289C136.555 3.46289 136.246 3.55664 135.98 3.74414C135.715 3.93164 135.508 4.17773 135.359 4.48242V9H134.275V2.66016H135.301ZM142.367 1.125V2.66016H143.551V3.49805H142.367V7.42969C142.367 7.68359 142.42 7.875 142.525 8.00391C142.631 8.12891 142.811 8.19141 143.064 8.19141C143.189 8.19141 143.361 8.16797 143.58 8.12109V9C143.295 9.07812 143.018 9.11719 142.748 9.11719C142.264 9.11719 141.898 8.9707 141.652 8.67773C141.406 8.38477 141.283 7.96875 141.283 7.42969V3.49805H140.129V2.66016H141.283V1.125H142.367ZM146 9H144.916V2.66016H146V9ZM144.828 0.978516C144.828 0.802734 144.881 0.654297 144.986 0.533203C145.096 0.412109 145.256 0.351562 145.467 0.351562C145.678 0.351562 145.838 0.412109 145.947 0.533203C146.057 0.654297 146.111 0.802734 146.111 0.978516C146.111 1.1543 146.057 1.30078 145.947 1.41797C145.838 1.53516 145.678 1.59375 145.467 1.59375C145.256 1.59375 145.096 1.53516 144.986 1.41797C144.881 1.30078 144.828 1.1543 144.828 0.978516ZM147.453 5.77148C147.453 5.15039 147.574 4.5918 147.816 4.0957C148.062 3.59961 148.402 3.2168 148.836 2.94727C149.273 2.67773 149.771 2.54297 150.33 2.54297C151.193 2.54297 151.891 2.8418 152.422 3.43945C152.957 4.03711 153.225 4.83203 153.225 5.82422V5.90039C153.225 6.51758 153.105 7.07227 152.867 7.56445C152.633 8.05273 152.295 8.43359 151.854 8.70703C151.416 8.98047 150.912 9.11719 150.342 9.11719C149.482 9.11719 148.785 8.81836 148.25 8.2207C147.719 7.62305 147.453 6.83203 147.453 5.84766V5.77148ZM148.543 5.90039C148.543 6.60352 148.705 7.16797 149.029 7.59375C149.357 8.01953 149.795 8.23242 150.342 8.23242C150.893 8.23242 151.33 8.01758 151.654 7.58789C151.979 7.1543 152.141 6.54883 152.141 5.77148C152.141 5.07617 151.975 4.51367 151.643 4.08398C151.314 3.65039 150.877 3.43359 150.33 3.43359C149.795 3.43359 149.363 3.64648 149.035 4.07227C148.707 4.49805 148.543 5.10742 148.543 5.90039ZM155.609 2.66016L155.645 3.45703C156.129 2.84766 156.762 2.54297 157.543 2.54297C158.883 2.54297 159.559 3.29883 159.57 4.81055V9H158.486V4.80469C158.482 4.34766 158.377 4.00977 158.17 3.79102C157.967 3.57227 157.648 3.46289 157.215 3.46289C156.863 3.46289 156.555 3.55664 156.289 3.74414C156.023 3.93164 155.816 4.17773 155.668 4.48242V9H154.584V2.66016H155.609ZM106.473 22.2324C106.859 22.2324 107.197 22.1152 107.486 21.8809C107.775 21.6465 107.936 21.3535 107.967 21.002H108.992C108.973 21.3652 108.848 21.7109 108.617 22.0391C108.387 22.3672 108.078 22.6289 107.691 22.8242C107.309 23.0195 106.902 23.1172 106.473 23.1172C105.609 23.1172 104.922 22.8301 104.41 22.2559C103.902 21.6777 103.648 20.8887 103.648 19.8887V19.707C103.648 19.0898 103.762 18.541 103.988 18.0605C104.215 17.5801 104.539 17.207 104.961 16.9414C105.387 16.6758 105.889 16.543 106.467 16.543C107.178 16.543 107.768 16.7559 108.236 17.1816C108.709 17.6074 108.961 18.1602 108.992 18.8398H107.967C107.936 18.4297 107.779 18.0938 107.498 17.832C107.221 17.5664 106.877 17.4336 106.467 17.4336C105.916 17.4336 105.488 17.6328 105.184 18.0312C104.883 18.4258 104.732 18.998 104.732 19.748V19.9531C104.732 20.6836 104.883 21.2461 105.184 21.6406C105.484 22.0352 105.914 22.2324 106.473 22.2324ZM111.389 23H110.305V14H111.389V23ZM117.043 23C116.98 22.875 116.93 22.6523 116.891 22.332C116.387 22.8555 115.785 23.1172 115.086 23.1172C114.461 23.1172 113.947 22.9414 113.545 22.5898C113.146 22.2344 112.947 21.7852 112.947 21.2422C112.947 20.582 113.197 20.0703 113.697 19.707C114.201 19.3398 114.908 19.1562 115.818 19.1562H116.873V18.6582C116.873 18.2793 116.76 17.9785 116.533 17.7559C116.307 17.5293 115.973 17.416 115.531 17.416C115.145 17.416 114.82 17.5137 114.559 17.709C114.297 17.9043 114.166 18.1406 114.166 18.418H113.076C113.076 18.1016 113.188 17.7969 113.41 17.5039C113.637 17.207 113.941 16.9727 114.324 16.8008C114.711 16.6289 115.135 16.543 115.596 16.543C116.326 16.543 116.898 16.7266 117.312 17.0938C117.727 17.457 117.941 17.959 117.957 18.5996V21.5176C117.957 22.0996 118.031 22.5625 118.18 22.9062V23H117.043ZM115.244 22.1738C115.584 22.1738 115.906 22.0859 116.211 21.9102C116.516 21.7344 116.736 21.5059 116.873 21.2246V19.9238H116.023C114.695 19.9238 114.031 20.3125 114.031 21.0898C114.031 21.4297 114.145 21.6953 114.371 21.8867C114.598 22.0781 114.889 22.1738 115.244 22.1738ZM123.348 21.3184C123.348 21.0254 123.236 20.7988 123.014 20.6387C122.795 20.4746 122.41 20.334 121.859 20.2168C121.312 20.0996 120.877 19.959 120.553 19.7949C120.232 19.6309 119.994 19.4355 119.838 19.209C119.686 18.9824 119.609 18.7129 119.609 18.4004C119.609 17.8809 119.828 17.4414 120.266 17.082C120.707 16.7227 121.27 16.543 121.953 16.543C122.672 16.543 123.254 16.7285 123.699 17.0996C124.148 17.4707 124.373 17.9453 124.373 18.5234H123.283C123.283 18.2266 123.156 17.9707 122.902 17.7559C122.652 17.541 122.336 17.4336 121.953 17.4336C121.559 17.4336 121.25 17.5195 121.027 17.6914C120.805 17.8633 120.693 18.0879 120.693 18.3652C120.693 18.627 120.797 18.8242 121.004 18.957C121.211 19.0898 121.584 19.2168 122.123 19.3379C122.666 19.459 123.105 19.6035 123.441 19.7715C123.777 19.9395 124.025 20.1426 124.186 20.3809C124.35 20.6152 124.432 20.9023 124.432 21.2422C124.432 21.8086 124.205 22.2637 123.752 22.6074C123.299 22.9473 122.711 23.1172 121.988 23.1172C121.48 23.1172 121.031 23.0273 120.641 22.8477C120.25 22.668 119.943 22.418 119.721 22.0977C119.502 21.7734 119.393 21.4238 119.393 21.0488H120.477C120.496 21.4121 120.641 21.7012 120.91 21.916C121.184 22.127 121.543 22.2324 121.988 22.2324C122.398 22.2324 122.727 22.1504 122.973 21.9863C123.223 21.8184 123.348 21.5957 123.348 21.3184ZM129.535 21.3184C129.535 21.0254 129.424 20.7988 129.201 20.6387C128.982 20.4746 128.598 20.334 128.047 20.2168C127.5 20.0996 127.064 19.959 126.74 19.7949C126.42 19.6309 126.182 19.4355 126.025 19.209C125.873 18.9824 125.797 18.7129 125.797 18.4004C125.797 17.8809 126.016 17.4414 126.453 17.082C126.895 16.7227 127.457 16.543 128.141 16.543C128.859 16.543 129.441 16.7285 129.887 17.0996C130.336 17.4707 130.561 17.9453 130.561 18.5234H129.471C129.471 18.2266 129.344 17.9707 129.09 17.7559C128.84 17.541 128.523 17.4336 128.141 17.4336C127.746 17.4336 127.438 17.5195 127.215 17.6914C126.992 17.8633 126.881 18.0879 126.881 18.3652C126.881 18.627 126.984 18.8242 127.191 18.957C127.398 19.0898 127.771 19.2168 128.311 19.3379C128.854 19.459 129.293 19.6035 129.629 19.7715C129.965 19.9395 130.213 20.1426 130.373 20.3809C130.537 20.6152 130.619 20.9023 130.619 21.2422C130.619 21.8086 130.393 22.2637 129.939 22.6074C129.486 22.9473 128.898 23.1172 128.176 23.1172C127.668 23.1172 127.219 23.0273 126.828 22.8477C126.438 22.668 126.131 22.418 125.908 22.0977C125.689 21.7734 125.58 21.4238 125.58 21.0488H126.664C126.684 21.4121 126.828 21.7012 127.098 21.916C127.371 22.127 127.73 22.2324 128.176 22.2324C128.586 22.2324 128.914 22.1504 129.16 21.9863C129.41 21.8184 129.535 21.5957 129.535 21.3184ZM133.209 23H132.125V16.6602H133.209V23ZM132.037 14.9785C132.037 14.8027 132.09 14.6543 132.195 14.5332C132.305 14.4121 132.465 14.3516 132.676 14.3516C132.887 14.3516 133.047 14.4121 133.156 14.5332C133.266 14.6543 133.32 14.8027 133.32 14.9785C133.32 15.1543 133.266 15.3008 133.156 15.418C133.047 15.5352 132.887 15.5938 132.676 15.5938C132.465 15.5938 132.305 15.5352 132.195 15.418C132.09 15.3008 132.037 15.1543 132.037 14.9785ZM135.312 23V17.498H134.311V16.6602H135.312V16.1211C135.312 15.4141 135.514 14.8633 135.916 14.4688C136.322 14.0742 136.895 13.877 137.633 13.877C138.07 13.877 138.623 13.9961 139.291 14.2344L139.109 15.1484C138.621 14.9531 138.156 14.8555 137.715 14.8555C137.25 14.8555 136.914 14.9609 136.707 15.1719C136.504 15.3789 136.402 15.6914 136.402 16.1094V16.6602H137.697V17.498H136.402V23H135.312ZM139.83 23H138.74V16.6602H139.83V23ZM144.137 22.2324C144.523 22.2324 144.861 22.1152 145.15 21.8809C145.439 21.6465 145.6 21.3535 145.631 21.002H146.656C146.637 21.3652 146.512 21.7109 146.281 22.0391C146.051 22.3672 145.742 22.6289 145.355 22.8242C144.973 23.0195 144.566 23.1172 144.137 23.1172C143.273 23.1172 142.586 22.8301 142.074 22.2559C141.566 21.6777 141.312 20.8887 141.312 19.8887V19.707C141.312 19.0898 141.426 18.541 141.652 18.0605C141.879 17.5801 142.203 17.207 142.625 16.9414C143.051 16.6758 143.553 16.543 144.131 16.543C144.842 16.543 145.432 16.7559 145.9 17.1816C146.373 17.6074 146.625 18.1602 146.656 18.8398H145.631C145.6 18.4297 145.443 18.0938 145.162 17.832C144.885 17.5664 144.541 17.4336 144.131 17.4336C143.58 17.4336 143.152 17.6328 142.848 18.0312C142.547 18.4258 142.396 18.998 142.396 19.748V19.9531C142.396 20.6836 142.547 21.2461 142.848 21.6406C143.148 22.0352 143.578 22.2324 144.137 22.2324ZM151.789 23C151.727 22.875 151.676 22.6523 151.637 22.332C151.133 22.8555 150.531 23.1172 149.832 23.1172C149.207 23.1172 148.693 22.9414 148.291 22.5898C147.893 22.2344 147.693 21.7852 147.693 21.2422C147.693 20.582 147.943 20.0703 148.443 19.707C148.947 19.3398 149.654 19.1562 150.564 19.1562H151.619V18.6582C151.619 18.2793 151.506 17.9785 151.279 17.7559C151.053 17.5293 150.719 17.416 150.277 17.416C149.891 17.416 149.566 17.5137 149.305 17.709C149.043 17.9043 148.912 18.1406 148.912 18.418H147.822C147.822 18.1016 147.934 17.7969 148.156 17.5039C148.383 17.207 148.688 16.9727 149.07 16.8008C149.457 16.6289 149.881 16.543 150.342 16.543C151.072 16.543 151.645 16.7266 152.059 17.0938C152.473 17.457 152.688 17.959 152.703 18.5996V21.5176C152.703 22.0996 152.777 22.5625 152.926 22.9062V23H151.789ZM149.99 22.1738C150.33 22.1738 150.652 22.0859 150.957 21.9102C151.262 21.7344 151.482 21.5059 151.619 21.2246V19.9238H150.77C149.441 19.9238 148.777 20.3125 148.777 21.0898C148.777 21.4297 148.891 21.6953 149.117 21.8867C149.344 22.0781 149.635 22.1738 149.99 22.1738ZM155.873 15.125V16.6602H157.057V17.498H155.873V21.4297C155.873 21.6836 155.926 21.875 156.031 22.0039C156.137 22.1289 156.316 22.1914 156.57 22.1914C156.695 22.1914 156.867 22.168 157.086 22.1211V23C156.801 23.0781 156.523 23.1172 156.254 23.1172C155.77 23.1172 155.404 22.9707 155.158 22.6777C154.912 22.3848 154.789 21.9688 154.789 21.4297V17.498H153.635V16.6602H154.789V15.125H155.873ZM159.506 23H158.422V16.6602H159.506V23ZM158.334 14.9785C158.334 14.8027 158.387 14.6543 158.492 14.5332C158.602 14.4121 158.762 14.3516 158.973 14.3516C159.184 14.3516 159.344 14.4121 159.453 14.5332C159.562 14.6543 159.617 14.8027 159.617 14.9785C159.617 15.1543 159.562 15.3008 159.453 15.418C159.344 15.5352 159.184 15.5938 158.973 15.5938C158.762 15.5938 158.602 15.5352 158.492 15.418C158.387 15.3008 158.334 15.1543 158.334 14.9785ZM160.959 19.7715C160.959 19.1504 161.08 18.5918 161.322 18.0957C161.568 17.5996 161.908 17.2168 162.342 16.9473C162.779 16.6777 163.277 16.543 163.836 16.543C164.699 16.543 165.396 16.8418 165.928 17.4395C166.463 18.0371 166.73 18.832 166.73 19.8242V19.9004C166.73 20.5176 166.611 21.0723 166.373 21.5645C166.139 22.0527 165.801 22.4336 165.359 22.707C164.922 22.9805 164.418 23.1172 163.848 23.1172C162.988 23.1172 162.291 22.8184 161.756 22.2207C161.225 21.623 160.959 20.832 160.959 19.8477V19.7715ZM162.049 19.9004C162.049 20.6035 162.211 21.168 162.535 21.5938C162.863 22.0195 163.301 22.2324 163.848 22.2324C164.398 22.2324 164.836 22.0176 165.16 21.5879C165.484 21.1543 165.646 20.5488 165.646 19.7715C165.646 19.0762 165.48 18.5137 165.148 18.084C164.82 17.6504 164.383 17.4336 163.836 17.4336C163.301 17.4336 162.869 17.6465 162.541 18.0723C162.213 18.498 162.049 19.1074 162.049 19.9004ZM169.115 16.6602L169.15 17.457C169.635 16.8477 170.268 16.543 171.049 16.543C172.389 16.543 173.064 17.2988 173.076 18.8105V23H171.992V18.8047C171.988 18.3477 171.883 18.0098 171.676 17.791C171.473 17.5723 171.154 17.4629 170.721 17.4629C170.369 17.4629 170.061 17.5566 169.795 17.7441C169.529 17.9316 169.322 18.1777 169.174 18.4824V23H168.09V16.6602H169.115Z" fill="black"/>
</svg>
