<?xml version="1.0" encoding="UTF-8" standalone="no"?>
<svg
   xmlns:dc="http://purl.org/dc/elements/1.1/"
   xmlns:cc="http://creativecommons.org/ns#"
   xmlns:rdf="http://www.w3.org/1999/02/22-rdf-syntax-ns#"
   xmlns:svg="http://www.w3.org/2000/svg"
   xmlns="http://www.w3.org/2000/svg"
   xmlns:sodipodi="http://sodipodi.sourceforge.net/DTD/sodipodi-0.dtd"
   xmlns:inkscape="http://www.inkscape.org/namespaces/inkscape"
   aria-hidden="true"
   focusable="false"
   data-prefix="fas"
   data-icon="braille"
   class="svg-inline--fa fa-braille fa-w-20"
   role="img"
   viewBox="0 0 640 512"
   version="1.1"
   id="svg4"
   sodipodi:docname="many_classes.svg"
   inkscape:version="0.92.3 (2405546, 2018-03-11)">
  <metadata
     id="metadata10">
    <rdf:RDF>
      <cc:Work
         rdf:about="">
        <dc:format>image/svg+xml</dc:format>
        <dc:type
           rdf:resource="http://purl.org/dc/dcmitype/StillImage" />
        <dc:title></dc:title>
      </cc:Work>
    </rdf:RDF>
  </metadata>
  <defs
     id="defs8" />
  <sodipodi:namedview
     pagecolor="#ffffff"
     bordercolor="#666666"
     borderopacity="1"
     objecttolerance="10"
     gridtolerance="10"
     guidetolerance="10"
     inkscape:pageopacity="0"
     inkscape:pageshadow="2"
     inkscape:window-width="1920"
     inkscape:window-height="1015"
     id="namedview6"
     showgrid="false"
     inkscape:zoom="0.921875"
     inkscape:cx="351.19097"
     inkscape:cy="142.26108"
     inkscape:window-x="0"
     inkscape:window-y="0"
     inkscape:window-maximized="1"
     inkscape:current-layer="svg4" />
  <g
     id="g87541"
     transform="translate(-5.4237288,-6.5084749)">
    <path
       inkscape:connector-curvature="0"
       id="path87359"
       d="m 448.5422,157.7013 c 0,16.33981 -13.24622,29.58603 -29.58602,29.58603 -16.33981,0 -29.58603,-13.24622 -29.58603,-29.58603 0,-16.3398 13.24622,-29.58603 29.58603,-29.58603 16.3398,0 29.58602,13.24623 29.58602,29.58603 z"
       style="fill:currentColor;stroke-width:0.99999994" />
    <path
       inkscape:connector-curvature="0"
       id="path87357"
       d="m 465.67259,409.11116 c -8.1699,0 -14.79301,6.62311 -14.79301,14.79301 0,8.16987 6.62311,14.79302 14.79301,14.79302 8.1699,0 14.79301,-6.62315 14.79301,-14.79302 0,-8.1699 -6.62311,-14.79301 -14.79301,-14.79301 z"
       style="fill:currentColor;stroke-width:0.99999994" />
    <path
       inkscape:connector-curvature="0"
       id="path87355"
       d="m 399.5812,262.89642 c -16.33982,0 -29.58603,13.24621 -29.58603,29.58603 0,16.33981 13.24621,29.58603 29.58603,29.58603 16.3398,0 29.58602,-13.24622 29.58602,-29.58603 0,-16.33982 -13.24622,-29.58603 -29.58602,-29.58603 z"
       style="fill:currentColor;stroke-width:0.99999994" />
    <path
       inkscape:connector-curvature="0"
       id="path87353"
       d="m 545.50574,225.33645 c -8.1699,0 -14.79301,6.62311 -14.79301,14.79301 0,8.16991 6.62311,14.79302 14.79301,14.79302 8.16991,0 14.79302,-6.62311 14.79302,-14.79302 0,-8.1699 -6.62311,-14.79301 -14.79302,-14.79301 z"
       style="fill:currentColor;stroke-width:0.99999994" />
    <path
       inkscape:connector-curvature="0"
       id="path87351"
       d="m 131.23217,387.7875 c -8.1699,0 -14.79301,6.62311 -14.79301,14.79301 0,8.16991 6.62311,14.79302 14.79301,14.79302 8.16991,0 14.79302,-6.62311 14.79302,-14.79302 0,-8.1699 -6.62311,-14.79301 -14.79302,-14.79301 z"
       style="fill:currentColor;stroke-width:0.99999994" />
    <path
       inkscape:connector-curvature="0"
       id="path87349"
       d="m 538.4314,289.02541 c -16.33981,0 -29.58603,13.24622 -29.58603,29.58603 0,16.3398 13.24622,29.58602 29.58603,29.58602 16.33981,0 29.58603,-13.24622 29.58603,-29.58602 0,-16.33981 -13.24622,-29.58603 -29.58603,-29.58603 z"
       style="fill:currentColor;stroke-width:0.99999994" />
    <path
       inkscape:connector-curvature="0"
       id="path87347"
       d="m 570.7442,76.279634 c -8.1699,0 -14.79301,6.623102 -14.79301,14.793012 0,8.169894 6.62311,14.793014 14.79301,14.793014 8.1699,0 14.79301,-6.62312 14.79301,-14.793014 0,-8.16991 -6.62311,-14.793012 -14.79301,-14.793012 z"
       style="fill:currentColor;stroke-width:0.99999994" />
    <path
       inkscape:connector-curvature="0"
       id="path87345"
       d="m 177.31029,409.80204 c -8.16989,0 -14.793,6.62311 -14.793,14.79301 0,8.16988 6.62311,14.79303 14.793,14.79303 8.16991,0 14.79301,-6.62315 14.79301,-14.79303 0,-8.1699 -6.6231,-14.79301 -14.79301,-14.79301 z"
       style="fill:currentColor;stroke-width:0.99999994" />
    <path
       inkscape:connector-curvature="0"
       id="path87343"
       d="m 100.75889,85.59823 c -16.339815,0 -29.586035,13.246212 -29.586035,29.58602 0,16.33978 13.24622,29.586 29.586035,29.586 16.3398,0 29.58602,-13.24622 29.58602,-29.586 0,-16.339808 -13.24622,-29.58602 -29.58602,-29.58602 z"
       style="fill:currentColor;stroke-width:0.99999994" />
    <path
       inkscape:connector-curvature="0"
       id="path87341"
       d="m 180.19606,225.38667 c -8.16991,0 -14.79302,6.62311 -14.79302,14.79301 0,8.16991 6.62311,14.79302 14.79302,14.79302 8.1699,0 14.793,-6.62311 14.793,-14.79302 0,-8.1699 -6.6231,-14.79301 -14.793,-14.79301 z"
       style="fill:currentColor;stroke-width:0.99999994" />
    <path
       inkscape:connector-curvature="0"
       id="path87339"
       d="m 466.5848,172.99655 c -8.1699,0 -14.79301,6.62311 -14.79301,14.79302 0,8.1699 6.62311,14.79301 14.79301,14.79301 8.1699,0 14.79301,-6.62311 14.79301,-14.79301 0,-8.16991 -6.62311,-14.79302 -14.79301,-14.79302 z"
       style="fill:currentColor;stroke-width:0.99999994" />
    <path
       inkscape:connector-curvature="0"
       id="path2"
       d="m 132.72964,223.62108 c -8.1699,0 -14.79301,6.62311 -14.79301,14.79302 0,8.1699 6.62311,14.79301 14.79301,14.79301 8.16991,0 14.79302,-6.62311 14.79302,-14.79301 0,-8.16991 -6.62311,-14.79302 -14.79302,-14.79302 z"
       style="fill:currentColor;stroke-width:0.99999994" />
    <path
       inkscape:connector-curvature="0"
       id="path87359-8"
       d="m 263.67955,201.2081 c 0,16.33981 -13.24622,29.58603 -29.58603,29.58603 -16.3398,0 -29.58602,-13.24622 -29.58602,-29.58603 0,-16.3398 13.24622,-29.58602 29.58602,-29.58602 16.33981,0 29.58603,13.24622 29.58603,29.58602 z"
       style="fill:currentColor;stroke-width:0.99999994" />
    <path
       inkscape:connector-curvature="0"
       id="path87357-5"
       d="m 73.341226,392.66208 c -8.169902,0 -14.793011,6.6231 -14.793011,14.79301 0,8.1699 6.623109,14.79301 14.793011,14.79301 8.169903,0 14.793012,-6.62311 14.793012,-14.79301 0,-8.16991 -6.623109,-14.79301 -14.793012,-14.79301 z"
       style="fill:currentColor;stroke-width:0.99999994" />
    <path
       inkscape:connector-curvature="0"
       id="path87355-8"
       d="m 449.90211,322.42656 c -16.33981,0 -29.58602,13.24622 -29.58602,29.58602 0,16.33981 13.24621,29.58603 29.58602,29.58603 16.33981,0 29.58603,-13.24622 29.58603,-29.58603 0,-16.3398 -13.24622,-29.58602 -29.58603,-29.58602 z"
       style="fill:currentColor;stroke-width:0.99999994" />
    <path
       inkscape:connector-curvature="0"
       id="path87353-2"
       d="m 377.27354,342.65937 c -8.1699,0 -14.79301,6.62311 -14.79301,14.79302 0,8.16991 6.62311,14.79301 14.79301,14.79301 8.16991,0 14.79302,-6.6231 14.79302,-14.79301 0,-8.16991 -6.62311,-14.79302 -14.79302,-14.79302 z"
       style="fill:currentColor;stroke-width:0.99999994" />
    <path
       inkscape:connector-curvature="0"
       id="path87351-6"
       d="m 214.44558,312.25516 c -8.16991,0 -14.79302,6.62311 -14.79302,14.79301 0,8.1699 6.62311,14.79301 14.79302,14.79301 8.1699,0 14.79301,-6.62311 14.79301,-14.79301 0,-8.1699 -6.62311,-14.79301 -14.79301,-14.79301 z"
       style="fill:currentColor;stroke-width:0.99999994" />
    <path
       inkscape:connector-curvature="0"
       id="path87349-0"
       d="m 339.4602,209.01141 c -16.33981,0 -29.58603,13.24621 -29.58603,29.58602 0,16.3398 13.24622,29.58602 29.58603,29.58602 16.33981,0 29.58603,-13.24622 29.58603,-29.58602 0,-16.33981 -13.24622,-29.58602 -29.58603,-29.58602 z"
       style="fill:currentColor;stroke-width:0.99999994" />
    <path
       inkscape:connector-curvature="0"
       id="path87347-6"
       d="m 278.63443,228.85728 c -8.1699,0 -14.793,6.62311 -14.793,14.79301 0,8.1699 6.6231,14.79301 14.793,14.79301 8.16991,0 14.79302,-6.62311 14.79302,-14.79301 0,-8.1699 -6.62311,-14.79301 -14.79302,-14.79301 z"
       style="fill:currentColor;stroke-width:0.99999994" />
    <path
       inkscape:connector-curvature="0"
       id="path87345-6"
       d="m 513.75118,174.09832 c -8.1699,0 -14.79301,6.62311 -14.79301,14.79301 0,8.16991 6.62311,14.79302 14.79301,14.79302 8.16991,0 14.79302,-6.62311 14.79302,-14.79302 0,-8.1699 -6.62311,-14.79301 -14.79302,-14.79301 z"
       style="fill:currentColor;stroke-width:0.99999994" />
    <path
       inkscape:connector-curvature="0"
       id="path87343-4"
       d="m 267.79729,388.02289 c -16.3398,0 -29.58602,13.24622 -29.58602,29.58603 0,16.33981 13.24622,29.58603 29.58602,29.58603 16.3398,0 29.58602,-13.24622 29.58602,-29.58603 0,-16.33981 -13.24622,-29.58603 -29.58602,-29.58603 z"
       style="fill:currentColor;stroke-width:0.99999994" />
    <path
       inkscape:connector-curvature="0"
       id="path87341-6"
       d="m 91.307397,176.73847 c -8.169902,0 -14.793012,6.62311 -14.793012,14.79301 0,8.1699 6.62311,14.79301 14.793012,14.79301 8.169901,0 14.793013,-6.62311 14.793013,-14.79301 0,-8.1699 -6.623112,-14.79301 -14.793013,-14.79301 z"
       style="fill:currentColor;stroke-width:0.99999994" />
    <path
       inkscape:connector-curvature="0"
       id="path87339-2"
       d="m 38.256962,136.49044 c -8.169901,0 -14.793011,6.62311 -14.793011,14.79301 0,8.1699 6.62311,14.79301 14.793011,14.79301 8.169902,0 14.793012,-6.62311 14.793012,-14.79301 0,-8.1699 -6.62311,-14.79301 -14.793012,-14.79301 z"
       style="fill:currentColor;stroke-width:0.99999994" />
    <path
       inkscape:connector-curvature="0"
       id="path2-8"
       d="m 316.71137,116.10819 c -8.1699,0 -14.79301,6.62311 -14.79301,14.79302 0,8.1699 6.62311,14.79301 14.79301,14.79301 8.16991,0 14.79302,-6.62311 14.79302,-14.79301 0,-8.16991 -6.62311,-14.79302 -14.79302,-14.79302 z"
       style="fill:currentColor;stroke-width:0.99999994" />
    <path
       inkscape:connector-curvature="0"
       id="path87359-9"
       d="m 214.85725,86.38519 c 0,16.3398 -13.24622,29.58601 -29.58602,29.58601 -16.33981,0 -29.58604,-13.24621 -29.58604,-29.58601 0,-16.339812 13.24623,-29.58603 29.58604,-29.58603 16.3398,0 29.58602,13.246218 29.58602,29.58603 z"
       style="fill:currentColor;stroke-width:0.99999994" />
    <path
       inkscape:connector-curvature="0"
       id="path87357-6"
       d="m 212.72735,366.43111 c -8.1699,0 -14.79301,6.6231 -14.79301,14.79301 0,8.1699 6.62311,14.79301 14.79301,14.79301 8.16991,0 14.79302,-6.62311 14.79302,-14.79301 0,-8.16991 -6.62311,-14.79301 -14.79302,-14.79301 z"
       style="fill:currentColor;stroke-width:0.99999994" />
    <path
       inkscape:connector-curvature="0"
       id="path87355-0"
       d="m 320.52741,283.05565 c -16.33981,0 -29.58602,13.24622 -29.58602,29.58602 0,16.33981 13.24621,29.58603 29.58602,29.58603 16.3398,0 29.58602,-13.24622 29.58602,-29.58603 0,-16.3398 -13.24622,-29.58602 -29.58602,-29.58602 z"
       style="fill:currentColor;stroke-width:0.99999994" />
    <path
       inkscape:connector-curvature="0"
       id="path87353-7"
       d="m 165.59797,280.02568 c -8.1699,0 -14.79301,6.6231 -14.79301,14.793 0,8.16991 6.62311,14.79302 14.79301,14.79302 8.1699,0 14.79302,-6.62311 14.79302,-14.79302 0,-8.1699 -6.62312,-14.793 -14.79302,-14.793 z"
       style="fill:currentColor;stroke-width:0.99999994" />
    <path
       inkscape:connector-curvature="0"
       id="path87351-0"
       d="m 262.20697,288.37559 c -8.1699,0 -14.79301,6.62311 -14.79301,14.79301 0,8.1699 6.62311,14.79301 14.79301,14.79301 8.16989,0 14.793,-6.62311 14.793,-14.79301 0,-8.1699 -6.62311,-14.79301 -14.793,-14.79301 z"
       style="fill:currentColor;stroke-width:0.99999994" />
    <path
       inkscape:connector-curvature="0"
       id="path87349-1"
       d="m 573.98226,134.26354 c -16.3398,0 -29.58602,13.24623 -29.58602,29.58603 0,16.33981 13.24622,29.58603 29.58602,29.58603 16.33982,0 29.58603,-13.24622 29.58603,-29.58603 0,-16.3398 -13.24621,-29.58603 -29.58603,-29.58603 z"
       style="fill:currentColor;stroke-width:0.99999994" />
    <path
       inkscape:connector-curvature="0"
       id="path87347-0"
       d="m 265.18369,341.03584 c -8.16991,0 -14.79302,6.62311 -14.79302,14.79302 0,8.1699 6.62311,14.79301 14.79302,14.79301 8.1699,0 14.79301,-6.62311 14.79301,-14.79301 0,-8.16991 -6.62311,-14.79302 -14.79301,-14.79302 z"
       style="fill:currentColor;stroke-width:0.99999994" />
    <path
       inkscape:connector-curvature="0"
       id="path87345-1"
       d="m 115.66158,438.69374 c -8.1699,0 -14.79301,6.62308 -14.79301,14.79297 0,8.16989 6.62311,14.79304 14.79301,14.79304 8.1699,0 14.79301,-6.62315 14.79301,-14.79304 0,-8.16989 -6.62311,-14.79297 -14.79301,-14.79297 z"
       style="fill:currentColor;stroke-width:0.99999994" />
    <path
       inkscape:connector-curvature="0"
       id="path87343-3"
       d="m 475.50898,231.6097 c -16.33981,0 -29.58603,13.24622 -29.58603,29.58602 0,16.33981 13.24622,29.58604 29.58603,29.58604 16.3398,0 29.58602,-13.24623 29.58602,-29.58604 0,-16.3398 -13.24622,-29.58602 -29.58602,-29.58602 z"
       style="fill:currentColor;stroke-width:0.99999994" />
    <path
       inkscape:connector-curvature="0"
       id="path87341-7"
       d="m 113.29436,265.10322 c -8.1699,0 -14.793015,6.62311 -14.793015,14.79301 0,8.1699 6.623115,14.79301 14.793015,14.79301 8.16991,0 14.79302,-6.62311 14.79302,-14.79301 0,-8.1699 -6.62311,-14.79301 -14.79302,-14.79301 z"
       style="fill:currentColor;stroke-width:0.99999994" />
    <path
       inkscape:connector-curvature="0"
       id="path87339-7"
       d="m 168.96257,342.4238 c -8.16989,0 -14.793,6.62311 -14.793,14.79301 0,8.1699 6.62311,14.79301 14.793,14.79301 8.16991,0 14.79302,-6.62311 14.79302,-14.79301 0,-8.1699 -6.62311,-14.79301 -14.79302,-14.79301 z"
       style="fill:currentColor;stroke-width:0.99999994" />
    <path
       inkscape:connector-curvature="0"
       id="path2-2"
       d="m 412.62684,211.34531 c -8.1699,0 -14.79301,6.62311 -14.79301,14.793 0,8.1699 6.62311,14.79301 14.79301,14.79301 8.1699,0 14.79301,-6.62311 14.79301,-14.79301 0,-8.16989 -6.62311,-14.793 -14.79301,-14.793 z"
       style="fill:currentColor;stroke-width:0.99999994" />
    <path
       inkscape:connector-curvature="0"
       id="path87359-8-6"
       d="m 137.71599,344.35812 c 0,16.33981 -13.24621,29.58603 -29.58602,29.58603 -16.339809,0 -29.586028,-13.24622 -29.586028,-29.58603 0,-16.3398 13.246219,-29.58602 29.586028,-29.58602 16.33981,0 29.58602,13.24622 29.58602,29.58602 z"
       style="fill:currentColor;stroke-width:0.99999994" />
    <path
       inkscape:connector-curvature="0"
       id="path87357-5-4"
       d="m 562.2576,375.57286 c -8.16991,0 -14.79302,6.62311 -14.79302,14.79301 0,8.16991 6.62311,14.79302 14.79302,14.79302 8.1699,0 14.79301,-6.62311 14.79301,-14.79302 0,-8.1699 -6.62311,-14.79301 -14.79301,-14.79301 z"
       style="fill:currentColor;stroke-width:0.99999994" />
    <path
       inkscape:connector-curvature="0"
       id="path87355-8-5"
       d="m 495.69894,80.055576 c -16.3398,0 -29.58602,13.24622 -29.58602,29.586024 0,16.3398 13.24622,29.58601 29.58602,29.58601 16.3398,0 29.58602,-13.24621 29.58602,-29.58601 0,-16.339804 -13.24622,-29.586024 -29.58602,-29.586024 z"
       style="fill:currentColor;stroke-width:0.99999994" />
    <path
       inkscape:connector-curvature="0"
       id="path87353-2-2"
       d="m 224.55054,257.96665 c -8.1699,0 -14.79301,6.62311 -14.79301,14.79302 0,8.1699 6.62311,14.79301 14.79301,14.79301 8.16991,0 14.79301,-6.62311 14.79301,-14.79301 0,-8.16991 -6.6231,-14.79302 -14.79301,-14.79302 z"
       style="fill:currentColor;stroke-width:0.99999994" />
    <path
       inkscape:connector-curvature="0"
       id="path87351-6-0"
       d="m 247.62461,118.37221 c -8.1699,0 -14.79301,6.62311 -14.79301,14.79301 0,8.1699 6.62311,14.79301 14.79301,14.79301 8.16991,0 14.79301,-6.62311 14.79301,-14.79301 0,-8.1699 -6.6231,-14.79301 -14.79301,-14.79301 z"
       style="fill:currentColor;stroke-width:0.99999994" />
    <path
       inkscape:connector-curvature="0"
       id="path87349-0-2"
       d="m 388.86429,397.67594 c -16.33981,0 -29.58603,13.24621 -29.58603,29.586 0,16.33979 13.24622,29.58601 29.58603,29.58601 16.33981,0 29.58603,-13.24622 29.58603,-29.58601 0,-16.33979 -13.24622,-29.586 -29.58603,-29.586 z"
       style="fill:currentColor;stroke-width:0.99999994" />
    <path
       inkscape:connector-curvature="0"
       id="path87347-6-9"
       d="m 509.14775,368.05478 c -8.1699,0 -14.79301,6.6231 -14.79301,14.79301 0,8.1699 6.62311,14.79301 14.79301,14.79301 8.16991,0 14.79302,-6.62311 14.79302,-14.79301 0,-8.16991 -6.62311,-14.79301 -14.79302,-14.79301 z"
       style="fill:currentColor;stroke-width:0.99999994" />
    <path
       inkscape:connector-curvature="0"
       id="path87345-6-0"
       d="m 297.08737,166.35212 c -8.16989,0 -14.793,6.62311 -14.793,14.79301 0,8.16991 6.62311,14.79302 14.793,14.79302 8.16991,0 14.79302,-6.62311 14.79302,-14.79302 0,-8.1699 -6.62311,-14.79301 -14.79302,-14.79301 z"
       style="fill:currentColor;stroke-width:0.99999994" />
    <path
       inkscape:connector-curvature="0"
       id="path87343-4-9"
       d="m 170.95559,136.37246 c -16.33981,0 -29.58603,13.24622 -29.58603,29.58602 0,16.33981 13.24622,29.58603 29.58603,29.58603 16.33981,0 29.58601,-13.24622 29.58601,-29.58603 0,-16.3398 -13.2462,-29.58602 -29.58601,-29.58602 z"
       style="fill:currentColor;stroke-width:0.99999994" />
    <path
       inkscape:connector-curvature="0"
       id="path87341-6-9"
       d="m 325.25448,364.14294 c -8.1699,0 -14.793,6.62311 -14.793,14.79302 0,8.16991 6.6231,14.79302 14.793,14.79302 8.1699,0 14.79301,-6.62311 14.79301,-14.79302 0,-8.16991 -6.62311,-14.79302 -14.79301,-14.79302 z"
       style="fill:currentColor;stroke-width:0.99999994" />
    <path
       inkscape:connector-curvature="0"
       id="path87339-2-4"
       d="m 358.79509,168.18187 c -8.16991,0 -14.79302,6.62311 -14.79302,14.79301 0,8.16991 6.62311,14.79302 14.79302,14.79302 8.1699,0 14.79301,-6.62311 14.79301,-14.79302 0,-8.1699 -6.62311,-14.79301 -14.79301,-14.79301 z"
       style="fill:currentColor;stroke-width:0.99999994" />
    <path
       inkscape:connector-curvature="0"
       id="path2-8-5"
       d="m 602.25776,419.90202 c -8.1699,0 -14.79301,6.6231 -14.79301,14.79298 0,8.16997 6.62311,14.79304 14.79301,14.79304 8.16991,0 14.79302,-6.62307 14.79302,-14.79304 0,-8.16988 -6.62311,-14.79298 -14.79302,-14.79298 z"
       style="fill:currentColor;stroke-width:0.99999994" />
  </g>
</svg>
