<svg height="511pt" viewBox="0 -30 511.99963 511" width="511pt" xmlns="http://www.w3.org/2000/svg"><path d="m14.113281 396.964844 213.742188-370.21875c12.507812-21.664063 43.777343-21.664063 56.289062 0l213.742188 370.21875c11.632812 20.144531-2.90625 45.324218-26.167969 45.324218h-431.4375c-23.261719 0-37.800781-25.179687-26.167969-45.324218zm0 0" fill="#91def5"/><path d="m14.113281 396.964844c-11.632812 20.144531 2.90625 45.324218 26.167969 45.324218h431.4375c23.261719 0 37.796875-25.179687 26.167969-45.324218l-56.964844-98.664063h-369.847656zm0 0" fill="#d8ec84"/><path d="m227.855469 26.746094-73.648438 127.566406h203.585938l-73.648438-127.566406c-12.507812-21.664063-43.78125-21.664063-56.289062 0zm0 0" fill="#f6838d"/><path d="m506.546875 391.964844-105.953125-183.515625 15.148438-15.148438h75.492187c5.523437 0 10-4.476562 10-10 0-5.519531-4.476563-10-10-10h-79.632813c-2.652343 0-5.195312 1.054688-7.070312 2.929688l-14.289062 14.289062-97.4375-168.769531c-7.683594-13.308594-21.441407-21.25-36.804688-21.25s-29.121094 7.941406-36.804688 21.25l-19.648437 34.035156-12.464844-12.460937c-1.875-1.875-4.417969-2.929688-7.070312-2.929688h-76.855469c-5.519531 0-10 4.476563-10 10 0 5.519531 4.480469 9.996094 10 9.996094h72.710938l13.328124 13.328125-140.183593 242.796875-4.605469-4.609375c-1.878906-1.871094-4.421875-2.925781-7.070312-2.925781h-27.316407c-5.523437 0-9.9999998 4.476562-9.9999998 10 0 5.519531 4.4765628 9.996093 9.9999998 9.996093h23.171875l5.46875 5.46875-33.207031 57.519532c-7.269531 12.589844-7.269531 27.625 0 40.214844 7.269531 12.589843 20.289063 20.109374 34.828125 20.109374h172.125c5.523438 0 10-4.476562 10-10 0-5.523437-4.476562-10-10-10h-172.125c-7.308594 0-13.855469-3.777343-17.507812-10.109374-3.65625-6.328126-3.65625-13.886719 0-20.214844l30.527343-52.878906 10.996094 10.996093c1.953125 1.953125 4.511719 2.925781 7.070313 2.925781 2.558593 0 5.117187-.972656 7.070312-2.925781 3.902344-3.90625 3.902344-10.238281 0-14.144531l-14.785156-14.78125 13.195312-22.859375h358.304688l54.074218 93.664063c3.65625 6.332031 3.65625 13.890624 0 20.21875-3.652343 6.332031-10.199218 10.109374-17.507812 10.109374h-169.328125c-5.519531 0-9.996094 4.476563-9.996094 10 0 5.523438 4.476563 10 9.996094 10h169.328125c14.539062 0 27.558594-7.519531 34.828125-20.109374 7.269531-12.589844 7.269531-27.625 0-40.214844zm-293.042969-293.933594c1.953125 1.949219 4.511719 2.925781 7.070313 2.925781 2.558593 0 5.117187-.976562 7.070312-2.925781 3.90625-3.90625 3.90625-10.238281 0-14.144531l-13.460937-13.460938 22.332031-38.679687c4.066406-7.042969 11.351563-11.246094 19.484375-11.246094s15.414062 4.203125 19.480469 11.246094l64.992187 112.566406h-168.945312l32.304687-55.957031zm-125.109375 190.269531 71.585938-123.992187h192.039062l23.582031 40.847656-17.230468 17.230469c-3.902344 3.90625-3.902344 10.238281 0 14.140625 1.953125 1.953125 4.511718 2.929687 7.070312 2.929687s5.117188-.976562 7.070313-2.929687l13.441406-13.441406 37.652344 65.214843zm0 0"/><path d="m257.398438 432.289062c-2.628907 0-5.207032 1.070313-7.066407 2.929688s-2.929687 4.4375-2.929687 7.070312c0 2.628907 1.066406 5.207032 2.929687 7.066407 1.859375 1.859375 4.4375 2.929687 7.066407 2.929687 2.632812 0 5.210937-1.070312 7.070312-2.929687s2.929688-4.4375 2.929688-7.066407c0-2.632812-1.070313-5.210937-2.929688-7.070312s-4.4375-2.929688-7.070312-2.929688zm0 0"/></svg>