
<svg width="542" height="538" viewBox="0 0 542 538" fill="none" xmlns="http://www.w3.org/2000/svg">
<path d="M423.356 23.392C421.408 46.52 397.306 50.17 397.306 50.17C418 51.144 423.156 78.288 423.156 78.288C423.6 58.934 449.8 49.884 449.8 49.884C430.172 48.71 423.356 23.392 423.356 23.392Z" fill="#D7E057"/>
<path d="M449.98 46.89C432.772 45.858 426.316 22.84 426.254 22.606C425.874 21.202 424.548 20.296 423.086 20.402C421.636 20.534 420.49 21.686 420.368 23.136C418.648 43.568 397.742 47.064 396.858 47.2C395.332 47.432 394.232 48.782 394.312 50.322C394.392 51.864 395.626 53.092 397.168 53.164C415.224 54.016 420.166 78.602 420.212 78.852C420.488 80.274 421.732 81.286 423.158 81.286C423.242 81.286 423.326 81.282 423.41 81.276C424.94 81.148 426.124 79.89 426.16 78.356C426.546 61.338 450.542 52.802 450.786 52.718C452.138 52.25 452.97 50.89 452.774 49.474C452.578 48.058 451.408 46.976 449.98 46.89ZM422.848 67.582C420.136 61.32 415.43 53.766 407.674 49.828C413.536 47.02 420.492 42.002 424.078 33.282C427.18 39.424 432.476 47.042 440.746 50.728C434.73 54.008 426.9 59.54 422.848 67.582Z" fill="#3A312A"/>
<path d="M379.96 57.352C378.582 73.71 361.536 76.292 361.536 76.292C376.172 76.98 379.82 96.18 379.82 96.18C380.132 82.492 398.664 76.09 398.664 76.09C384.78 75.26 379.96 57.352 379.96 57.352Z" fill="#D7E057"/>
<path d="M398.842 73.098C387.31 72.406 382.898 56.726 382.854 56.568C382.476 55.166 381.134 54.252 379.692 54.364C378.24 54.494 377.092 55.65 376.97 57.1C375.814 70.84 361.678 73.23 361.088 73.324C359.562 73.556 358.462 74.906 358.542 76.446C358.622 77.988 359.856 79.216 361.398 79.288C373.466 79.856 376.844 96.578 376.874 96.742C377.146 98.168 378.392 99.182 379.82 99.182C379.902 99.182 379.986 99.178 380.07 99.172C381.6 99.046 382.786 97.786 382.822 96.25C383.082 84.832 399.484 78.984 399.644 78.928C400.998 78.462 401.832 77.102 401.638 75.684C401.44 74.266 400.27 73.184 398.842 73.098ZM379.672 86.686C377.824 82.916 374.992 78.794 370.78 76.128C374.49 74.046 378.174 70.868 380.52 66.296C382.636 70.042 385.828 74.204 390.402 76.744C386.704 78.944 382.424 82.22 379.672 86.686Z" fill="#3A312A"/>
<path d="M379.96 4.03799C378.582 20.396 361.536 22.98 361.536 22.98C376.172 23.668 379.82 42.868 379.82 42.868C380.132 29.18 398.664 22.778 398.664 22.778C384.78 21.946 379.96 4.03799 379.96 4.03799Z" fill="#D7E057"/>
<path d="M398.842 19.784C387.31 19.092 382.898 3.41 382.854 3.252C382.476 1.848 381.134 0.939997 379.692 1.048C378.24 1.178 377.092 2.334 376.97 3.784C375.814 17.526 361.678 19.916 361.088 20.01C359.562 20.242 358.462 21.592 358.542 23.132C358.622 24.674 359.856 25.902 361.398 25.974C373.466 26.542 376.844 43.264 376.874 43.428C377.146 44.854 378.392 45.868 379.82 45.868C379.902 45.868 379.986 45.864 380.07 45.858C381.6 45.732 382.786 44.472 382.822 42.936C383.082 31.518 399.484 25.67 399.644 25.614C400.998 25.148 401.832 23.788 401.638 22.37C401.44 20.952 400.27 19.87 398.842 19.784ZM379.672 33.372C377.824 29.602 374.992 25.48 370.78 22.814C374.49 20.732 378.174 17.554 380.52 12.98C382.636 16.728 385.828 20.89 390.402 23.43C386.704 25.628 382.424 28.906 379.672 33.372Z" fill="#3A312A"/>
<path d="M324.192 44.89C323.974 22.238 305.556 3.98398 282.902 3.97198L45.136 3.84998C22.31 3.83798 3.79999 22.338 3.79999 45.164V363.096C3.79999 385.914 22.296 404.41 45.114 404.41H283.486C306.302 404.41 324.8 385.912 324.8 363.096V108.1L324.192 44.89Z" fill="#F16C7A"/>
<path d="M327.194 44.862C326.96 20.674 307.092 0.986007 282.904 0.974007L45.138 0.850006H45.114C33.282 0.850006 22.158 5.45601 13.788 13.82C5.41199 22.192 0.799988 33.322 0.799988 45.164V123.078C0.799988 124.734 2.14399 126.078 3.79999 126.078C5.45599 126.078 6.79999 124.734 6.79999 123.078V45.164C6.79999 34.926 10.788 25.302 18.028 18.064C25.264 10.832 34.882 6.85 45.114 6.85H45.134L282.9 6.974C303.814 6.986 320.992 24.008 321.192 44.922L321.8 108.102V363.098C321.8 384.224 304.612 401.412 283.486 401.412H45.116C23.99 401.412 6.80199 384.224 6.80199 363.098V149.576C6.80199 147.92 5.45799 146.576 3.80199 146.576C2.14599 146.576 0.801989 147.92 0.801989 149.576V363.096C0.801989 387.532 20.68 407.41 45.116 407.41H283.488C307.924 407.41 327.802 387.532 327.802 363.096V108.07L327.194 44.862Z" fill="#3A312A"/>
<path d="M266.53 49.828H91.51C68.46 49.828 49.802 68.484 49.802 91.536V408.702C49.802 431.754 68.46 450.41 91.51 450.41H329.094C352.146 450.41 370.802 431.754 370.802 408.702V154.1L266.53 49.828Z" fill="#F7E3C7"/>
<path d="M372.922 151.978L268.65 47.706C268.088 47.144 267.324 46.828 266.528 46.828H91.508C66.856 46.828 46.8 66.884 46.8 91.536V408.7C46.8 433.352 66.854 453.408 91.508 453.408H203.056C204.712 453.408 206.056 452.064 206.056 450.408C206.056 448.752 204.712 447.408 203.056 447.408H91.508C70.164 447.408 52.8 430.042 52.8 408.7V91.538C52.8 70.194 70.164 52.83 91.508 52.83H265.288L367.8 155.342V408.702C367.8 430.046 350.434 447.41 329.092 447.41H228.544C226.888 447.41 225.544 448.754 225.544 450.41C225.544 452.066 226.888 453.41 228.544 453.41H329.092C353.744 453.41 373.8 433.354 373.8 408.702V154.1C373.8 153.304 373.484 152.542 372.922 151.978Z" fill="#3A312A"/>
<path d="M311.812 177.994H108.788C107.132 177.994 105.788 179.338 105.788 180.994C105.788 182.65 107.132 183.994 108.788 183.994H311.814C313.47 183.994 314.814 182.65 314.814 180.994C314.814 179.338 313.468 177.994 311.812 177.994Z" fill="#3A312A"/>
<path d="M311.812 227.768H108.788C107.132 227.768 105.788 229.112 105.788 230.768C105.788 232.424 107.132 233.768 108.788 233.768H311.814C313.47 233.768 314.814 232.424 314.814 230.768C314.814 229.112 313.468 227.768 311.812 227.768Z" fill="#3A312A"/>
<path d="M311.812 277.542H108.788C107.132 277.542 105.788 278.886 105.788 280.542C105.788 282.198 107.132 283.542 108.788 283.542H311.814C313.47 283.542 314.814 282.198 314.814 280.542C314.814 278.886 313.468 277.542 311.812 277.542Z" fill="#3A312A"/>
<path d="M311.812 327.314H108.788C107.132 327.314 105.788 328.658 105.788 330.314C105.788 331.97 107.132 333.314 108.788 333.314H311.814C313.47 333.314 314.814 331.97 314.814 330.314C314.814 328.658 313.468 327.314 311.812 327.314Z" fill="#3A312A"/>
<path d="M311.812 377.088H108.788C107.132 377.088 105.788 378.432 105.788 380.088C105.788 381.744 107.132 383.088 108.788 383.088H311.814C313.47 383.088 314.814 381.744 314.814 380.088C314.814 378.432 313.468 377.088 311.812 377.088Z" fill="#3A312A"/>
<path d="M266.744 50.044V117.638C266.744 137.918 283.184 154.358 303.464 154.358H370.8V154.1L266.744 50.044Z" fill="#F7E3C7"/>
<path d="M372.922 151.978L268.866 47.922C268.006 47.062 266.718 46.806 265.596 47.272C264.474 47.738 263.744 48.83 263.744 50.044V117.638C263.744 139.54 281.562 157.358 303.464 157.358H370.8C372.456 157.358 373.8 156.014 373.8 154.358V154.1C373.8 153.304 373.484 152.542 372.922 151.978ZM303.464 151.358C284.87 151.358 269.744 136.232 269.744 117.638V57.286L363.816 151.358H303.464Z" fill="#3A312A"/>
<path d="M227.802 105.622H119.012C113.366 105.622 108.788 110.2 108.788 115.846V127.708C108.788 133.354 113.366 137.932 119.012 137.932H227.804C233.45 137.932 238.028 133.354 238.028 127.708V115.846C238.026 110.2 233.45 105.622 227.802 105.622Z" fill="#8AC6DD"/>
<path d="M227.802 102.624H119.012C111.72 102.624 105.788 108.556 105.788 115.846V127.71C105.788 135.002 111.72 140.932 119.012 140.932H227.804C235.096 140.932 241.028 135 241.028 127.71V115.846C241.028 108.554 235.096 102.624 227.802 102.624ZM235.028 127.708C235.028 131.69 231.788 134.93 227.804 134.93H119.012C115.028 134.93 111.788 131.69 111.788 127.708V115.844C111.788 111.862 115.028 108.622 119.012 108.622H227.804C231.788 108.622 235.028 111.862 235.028 115.844V127.708Z" fill="#3A312A"/>
<path d="M321.2 44.914C321 24.014 303.82 6.994 282.9 6.974H252.9C273.82 6.994 291 24.014 291.2 44.914L291.44 70.494L321.72 100.794L321.2 44.914Z" fill="#D34E5C"/>
<path d="M337.808 157.35V281.65C346.308 278.89 355.388 277.41 364.808 277.41C365.808 277.41 366.808 277.45 367.808 277.49V157.35H337.808Z" fill="#DECAAD"/>
<path d="M466.638 456.913L449.196 439.471L430.458 420.733L420.588 410.863L374.526 364.801C371.49 369.135 368.034 373.261 364.17 377.125C360.306 380.989 356.18 384.445 351.846 387.481L443.958 479.593C450.22 485.857 460.374 485.857 466.638 479.593C472.902 473.329 472.902 463.175 466.638 456.913Z" fill="#EF6D7A"/>
<path d="M468.758 454.791L451.316 437.347C450.144 436.175 448.246 436.175 447.074 437.347C445.902 438.519 445.902 440.417 447.074 441.589L464.516 459.033C466.98 461.495 468.334 464.769 468.334 468.251C468.334 471.733 466.978 475.007 464.516 477.469C459.434 482.549 451.164 482.551 446.078 477.469L356.446 387.835C359.9 385.213 363.2 382.333 366.29 379.243C369.382 376.153 372.26 372.851 374.884 369.397L428.338 422.851C429.51 424.023 431.408 424.023 432.58 422.851C433.752 421.679 433.752 419.781 432.58 418.609L376.648 362.677C376.022 362.051 375.17 361.739 374.266 361.809C373.384 361.885 372.58 362.351 372.07 363.077C369.112 367.295 365.742 371.307 362.048 375.001C358.354 378.693 354.344 382.063 350.126 385.021C349.4 385.531 348.934 386.333 348.858 387.217C348.78 388.101 349.098 388.973 349.726 389.599L441.838 481.713C445.55 485.423 450.424 487.279 455.3 487.279C460.174 487.279 465.05 485.423 468.76 481.713C472.356 478.117 474.336 473.337 474.336 468.253C474.334 463.167 472.354 458.385 468.758 454.791Z" fill="#3A312A"/>
<path d="M391.28 355.019L383.992 347.731C379.49 358.411 372.872 368.421 364.17 377.123C355.468 385.825 345.458 392.441 334.778 396.945L342.066 404.233C347.248 409.415 355.668 409.415 360.85 404.233L391.278 373.805C396.462 368.623 396.462 360.203 391.28 355.019Z" fill="#D7E057"/>
<path d="M393.4 352.899L386.112 345.609C385.404 344.901 384.396 344.591 383.414 344.787C382.434 344.979 381.614 345.645 381.226 346.565C376.75 357.187 370.296 366.755 362.046 375.003C353.798 383.251 344.232 389.703 333.61 394.183C332.69 394.569 332.022 395.391 331.832 396.371C331.642 397.351 331.95 398.363 332.656 399.069L339.944 406.357C343.018 409.431 347.106 411.125 351.458 411.125C355.81 411.125 359.898 409.431 362.972 406.357L393.4 375.929C396.474 372.855 398.168 368.767 398.168 364.415C398.166 360.059 396.474 355.971 393.4 352.899ZM389.158 371.685L358.73 402.113C354.718 406.121 348.198 406.121 344.188 402.113L339.976 397.901C349.712 393.251 358.55 386.991 366.292 379.247C374.036 371.505 380.3 362.667 384.946 352.931L389.158 357.143C391.098 359.083 392.168 361.665 392.168 364.415C392.166 367.161 391.096 369.743 389.158 371.685Z" fill="#3A312A"/>
<path d="M298.652 404.257C349.822 404.257 391.304 362.775 391.304 311.605C391.304 260.435 349.822 218.953 298.652 218.953C247.482 218.953 206 260.435 206 311.605C206 362.775 247.482 404.257 298.652 404.257Z" fill="#F16C7A"/>
<path d="M366.288 243.969C328.992 206.677 268.308 206.677 231.016 243.969C212.95 262.035 203 286.057 203 311.605C203 337.153 212.95 361.173 231.016 379.239C249.664 397.887 274.158 407.209 298.652 407.209C323.148 407.209 347.642 397.887 366.288 379.239C403.582 341.949 403.582 281.265 366.288 243.969ZM362.046 374.999C327.09 409.953 270.214 409.955 235.258 374.999C218.326 358.065 209 335.553 209 311.607C209 287.661 218.326 265.147 235.258 248.213C252.738 230.735 275.69 221.999 298.652 221.999C321.608 221.999 344.57 230.739 362.046 248.213C397 283.169 397 340.043 362.046 374.999Z" fill="#3A312A"/>
<path d="M347.44 262.817C323.468 238.845 286.254 236.219 259.358 254.903L240.858 273.907C223.368 300.663 226.366 336.893 249.866 360.393C276.81 387.337 320.496 387.337 347.442 360.393C374.384 333.449 374.384 289.763 347.44 262.817Z" fill="#8AC6DD"/>
<path d="M349.56 260.697C324.906 236.045 286.252 232.575 257.646 252.441C256.286 253.387 255.948 255.257 256.894 256.617C257.84 257.981 259.706 258.317 261.07 257.371C287.288 239.159 322.722 242.343 345.32 264.939C371.052 290.671 371.052 332.541 345.32 358.273C332.856 370.737 316.284 377.603 298.654 377.603C281.026 377.603 264.452 370.737 251.988 358.273C230.02 336.305 226.396 301.515 243.37 275.551C244.278 274.165 243.888 272.307 242.5 271.399C241.114 270.497 239.254 270.883 238.348 272.271C219.828 300.599 223.78 338.553 247.746 362.517C261.344 376.117 279.424 383.605 298.654 383.605C317.886 383.605 335.964 376.117 349.562 362.517C377.632 334.443 377.632 288.769 349.56 260.697Z" fill="#3A312A"/>
<path d="M345.31 264.939C332.85 252.479 316.27 245.619 298.65 245.619C293.53 245.619 288.51 246.199 283.65 247.339C295.55 250.079 306.47 256.099 315.31 264.939C341.05 290.679 341.05 332.539 315.31 358.279C306.29 367.299 295.27 373.179 283.65 375.859C305.11 380.839 328.61 374.979 345.31 358.279C371.05 332.539 371.05 290.679 345.31 264.939Z" fill="#6CA8BF"/>
</svg>
